%TF.GenerationSoftware,KiCad,Pcbnew,8.0.5*%
%TF.CreationDate,2024-10-23T20:34:56-03:00*%
%TF.ProjectId,majoras,6d616a6f-7261-4732-9e6b-696361645f70,rev?*%
%TF.SameCoordinates,Original*%
%TF.FileFunction,Copper,L2,Bot*%
%TF.FilePolarity,Positive*%
%FSLAX46Y46*%
G04 Gerber Fmt 4.6, Leading zero omitted, Abs format (unit mm)*
G04 Created by KiCad (PCBNEW 8.0.5) date 2024-10-23 20:34:56*
%MOMM*%
%LPD*%
G01*
G04 APERTURE LIST*
G04 Aperture macros list*
%AMRoundRect*
0 Rectangle with rounded corners*
0 $1 Rounding radius*
0 $2 $3 $4 $5 $6 $7 $8 $9 X,Y pos of 4 corners*
0 Add a 4 corners polygon primitive as box body*
4,1,4,$2,$3,$4,$5,$6,$7,$8,$9,$2,$3,0*
0 Add four circle primitives for the rounded corners*
1,1,$1+$1,$2,$3*
1,1,$1+$1,$4,$5*
1,1,$1+$1,$6,$7*
1,1,$1+$1,$8,$9*
0 Add four rect primitives between the rounded corners*
20,1,$1+$1,$2,$3,$4,$5,0*
20,1,$1+$1,$4,$5,$6,$7,0*
20,1,$1+$1,$6,$7,$8,$9,0*
20,1,$1+$1,$8,$9,$2,$3,0*%
G04 Aperture macros list end*
%TA.AperFunction,ComponentPad*%
%ADD10R,1.800000X1.070000*%
%TD*%
%TA.AperFunction,ComponentPad*%
%ADD11O,1.800000X1.070000*%
%TD*%
%TA.AperFunction,SMDPad,CuDef*%
%ADD12RoundRect,0.250000X0.750000X-0.250000X0.750000X0.250000X-0.750000X0.250000X-0.750000X-0.250000X0*%
%TD*%
%TA.AperFunction,ViaPad*%
%ADD13C,0.600000*%
%TD*%
%TA.AperFunction,Conductor*%
%ADD14C,0.500000*%
%TD*%
G04 APERTURE END LIST*
D10*
%TO.P,D1,1,DOUT*%
%TO.N,DOUT*%
X149850000Y-92560000D03*
D11*
%TO.P,D1,2,GND*%
%TO.N,GND*%
X149850000Y-91290000D03*
%TO.P,D1,3,VDD*%
%TO.N,VDD*%
X149850000Y-90020000D03*
%TO.P,D1,4,DIN*%
%TO.N,DIN*%
X149850000Y-88750000D03*
%TD*%
D12*
%TO.P,REF\u002A\u002A,1*%
%TO.N,VDD*%
X144850000Y-88950000D03*
%TD*%
%TO.P,REF\u002A\u002A,1*%
%TO.N,VDD*%
X154800000Y-88900000D03*
%TD*%
%TO.P,REF\u002A\u002A,1*%
%TO.N,DIN*%
X144850000Y-90400000D03*
%TD*%
%TO.P,REF\u002A\u002A,1*%
%TO.N,GND*%
X144850000Y-91900000D03*
%TD*%
%TO.P,REF\u002A\u002A,1*%
%TO.N,GND*%
X154800000Y-91900000D03*
%TD*%
%TO.P,REF\u002A\u002A,1*%
%TO.N,DOUT*%
X154800000Y-90400000D03*
%TD*%
D13*
%TO.N,GND*%
X146450000Y-91900000D03*
%TO.N,DIN*%
X146450000Y-90350000D03*
%TO.N,VDD*%
X146650000Y-88850000D03*
%TO.N,DOUT*%
X151100000Y-92500000D03*
%TO.N,GND*%
X148350000Y-91350000D03*
%TO.N,VDD*%
X148350000Y-90020000D03*
%TO.N,DIN*%
X148350000Y-88750000D03*
%TO.N,GND*%
X151150000Y-91250000D03*
%TO.N,VDD*%
X151150000Y-90020000D03*
%TO.N,GND*%
X153250000Y-91950000D03*
%TO.N,VDD*%
X153250000Y-88850000D03*
%TO.N,DOUT*%
X153250000Y-90350000D03*
%TD*%
D14*
%TO.N,GND*%
X146450000Y-91900000D02*
X147100000Y-91900000D01*
%TO.N,DIN*%
X146450000Y-90350000D02*
X146500000Y-90300000D01*
%TO.N,DOUT*%
X149850000Y-92560000D02*
X151040000Y-92560000D01*
%TO.N,GND*%
X148350000Y-91350000D02*
X149790000Y-91350000D01*
%TO.N,DIN*%
X148350000Y-88750000D02*
X149850000Y-88750000D01*
%TO.N,VDD*%
X151150000Y-90020000D02*
X151480000Y-90020000D01*
%TO.N,GND*%
X153250000Y-91950000D02*
X151810000Y-91950000D01*
%TO.N,VDD*%
X153250000Y-88850000D02*
X154450000Y-88850000D01*
%TO.N,GND*%
X151810000Y-91950000D02*
X151150000Y-91290000D01*
X151150000Y-91290000D02*
X149850000Y-91290000D01*
X154600000Y-91950000D02*
X153250000Y-91950000D01*
%TO.N,VDD*%
X149850000Y-90020000D02*
X148350000Y-90020000D01*
X144850000Y-88950000D02*
X146750000Y-88950000D01*
X152650000Y-88850000D02*
X153250000Y-88850000D01*
X151480000Y-90020000D02*
X152650000Y-88850000D01*
X149850000Y-90020000D02*
X151150000Y-90020000D01*
%TO.N,GND*%
X144850000Y-91900000D02*
X146450000Y-91900000D01*
%TO.N,DIN*%
X146500000Y-90300000D02*
X148050000Y-88750000D01*
%TO.N,DOUT*%
X153300000Y-90400000D02*
X154800000Y-90400000D01*
X153250000Y-90350000D02*
X153300000Y-90400000D01*
%TO.N,GND*%
X147650000Y-91350000D02*
X148350000Y-91350000D01*
%TO.N,DIN*%
X148050000Y-88750000D02*
X148350000Y-88750000D01*
%TO.N,GND*%
X147650000Y-91350000D02*
X147100000Y-91900000D01*
%TO.N,DIN*%
X146400000Y-90400000D02*
X146450000Y-90350000D01*
X144850000Y-90400000D02*
X146400000Y-90400000D01*
%TD*%
M02*
