%TF.GenerationSoftware,KiCad,Pcbnew,8.0.5*%
%TF.CreationDate,2024-10-23T20:11:12-03:00*%
%TF.ProjectId,majoras - rotate,6d616a6f-7261-4732-902d-20726f746174,rev?*%
%TF.SameCoordinates,Original*%
%TF.FileFunction,Legend,Bot*%
%TF.FilePolarity,Positive*%
%FSLAX46Y46*%
G04 Gerber Fmt 4.6, Leading zero omitted, Abs format (unit mm)*
G04 Created by KiCad (PCBNEW 8.0.5) date 2024-10-23 20:11:12*
%MOMM*%
%LPD*%
G01*
G04 APERTURE LIST*
G04 Aperture macros list*
%AMRoundRect*
0 Rectangle with rounded corners*
0 $1 Rounding radius*
0 $2 $3 $4 $5 $6 $7 $8 $9 X,Y pos of 4 corners*
0 Add a 4 corners polygon primitive as box body*
4,1,4,$2,$3,$4,$5,$6,$7,$8,$9,$2,$3,0*
0 Add four circle primitives for the rounded corners*
1,1,$1+$1,$2,$3*
1,1,$1+$1,$4,$5*
1,1,$1+$1,$6,$7*
1,1,$1+$1,$8,$9*
0 Add four rect primitives between the rounded corners*
20,1,$1+$1,$2,$3,$4,$5,0*
20,1,$1+$1,$4,$5,$6,$7,0*
20,1,$1+$1,$6,$7,$8,$9,0*
20,1,$1+$1,$8,$9,$2,$3,0*%
%AMHorizOval*
0 Thick line with rounded ends*
0 $1 width*
0 $2 $3 position (X,Y) of the first rounded end (center of the circle)*
0 $4 $5 position (X,Y) of the second rounded end (center of the circle)*
0 Add line between two ends*
20,1,$1,$2,$3,$4,$5,0*
0 Add two circle primitives to create the rounded ends*
1,1,$1,$2,$3*
1,1,$1,$4,$5*%
%AMRotRect*
0 Rectangle, with rotation*
0 The origin of the aperture is its center*
0 $1 length*
0 $2 width*
0 $3 Rotation angle, in degrees counterclockwise*
0 Add horizontal line*
21,1,$1,$2,0,0,$3*%
G04 Aperture macros list end*
%ADD10C,0.100000*%
%ADD11C,0.120000*%
%ADD12RotRect,1.070000X1.800000X45.000000*%
%ADD13HorizOval,1.070000X-0.258094X0.258094X0.258094X-0.258094X0*%
%ADD14RoundRect,0.250000X-0.250000X-0.750000X0.250000X-0.750000X0.250000X0.750000X-0.250000X0.750000X0*%
%ADD15RoundRect,0.250000X0.750000X-0.250000X0.750000X0.250000X-0.750000X0.250000X-0.750000X-0.250000X0*%
G04 APERTURE END LIST*
D10*
X157750000Y-89000000D02*
X157500000Y-88500000D01*
X157500000Y-88500000D02*
X158000000Y-88500000D01*
X157750000Y-87750000D02*
X157750000Y-89000000D01*
X158000000Y-88500000D02*
X157750000Y-89000000D01*
X163346115Y-85991466D02*
X162584211Y-85991466D01*
X162965163Y-86372419D02*
X162965163Y-85610514D01*
X157946115Y-86191466D02*
X157184211Y-86191466D01*
X166141466Y-94403884D02*
X166141466Y-95165789D01*
X166546115Y-89391466D02*
X165784211Y-89391466D01*
X166165163Y-89772419D02*
X166165163Y-89010514D01*
D11*
%TO.C,D1*%
X159015221Y-91122381D02*
G75*
G02*
X163124797Y-87669007I2902551J717834D01*
G01*
X159559795Y-91235174D02*
G75*
G02*
X162747953Y-88046413I2357977J830627D01*
G01*
X164275909Y-89574369D02*
G75*
G02*
X161087147Y-92762525I-2358137J-830177D01*
G01*
X164653318Y-89197525D02*
G75*
G02*
X161199939Y-93307103I-2735546J-1207022D01*
G01*
X159343905Y-91451064D02*
X159015101Y-91122261D01*
X161200061Y-93307220D02*
X160871257Y-92978417D01*
%TD*%
%LPC*%
D12*
%TO.C,D1*%
X160555923Y-91794077D03*
D13*
X161453949Y-90896051D03*
X162351974Y-89998026D03*
X163250000Y-89100000D03*
%TD*%
D14*
%TO.C,REF\u002A\u002A*%
X161750000Y-85100000D03*
%TD*%
D15*
%TO.C,REF\u002A\u002A*%
X167050000Y-93600000D03*
%TD*%
%TO.C,REF\u002A\u002A*%
X167050000Y-92100000D03*
%TD*%
%TO.C,REF\u002A\u002A*%
X167050000Y-90600000D03*
%TD*%
D14*
%TO.C,REF\u002A\u002A*%
X158750000Y-85100000D03*
%TD*%
%TO.C,REF\u002A\u002A*%
X160250000Y-85100000D03*
%TD*%
%LPD*%
M02*
